<svg width="252" height="265" viewBox="0 0 252 265" fill="none" xmlns="http://www.w3.org/2000/svg">
<path d="M126.31 132.373H202.222V57.0928H126.31M126.31 132.373V57.0928M126.31 132.373H50.397V57.0928H126.31M126.31 57.0928L175.671 1.00065M126.31 57.0928L76.9473 1.00065M251.396 1V76.2797H175.484V1H251.396ZM251.396 1L202.035 57.0928M202.035 132.257L251.396 76.1644M175.671 76.1644L126.309 132.257L76.9477 76.1644M126.31 132.14H202.222V207.421H126.31M126.31 132.14V207.421M126.31 132.14H50.262V207.421H126.31M126.31 207.421L175.671 263.515M126.31 207.421L76.8595 263.515M251.396 263.515V188.234H175.484V263.515H251.396ZM251.396 263.515L202.035 207.421M202.035 132.256L251.396 188.35M175.671 188.35L126.309 132.256L76.86 188.35M1.2224 1V76.2797H77.1347V1H1.2224ZM1.2224 1L50.5841 57.0928M50.5841 132.257L1.2224 76.1644M1 263.515V188.234H77.0472V263.515H1ZM1 263.515L50.4496 207.421M50.4496 132.256L1.00019 188.35" stroke="white" stroke-dasharray="10 10"/>
</svg>
