<svg width="298" height="100" viewBox="0 0 298 100" fill="none" xmlns="http://www.w3.org/2000/svg">
<path d="M140.54 64.461C140.54 65.311 140.557 66.161 140.591 67.011C140.625 67.827 140.676 68.49 140.744 69H134.267C134.199 68.728 134.131 68.32 134.063 67.776C134.029 67.232 134.012 66.671 134.012 66.093C133.434 67.079 132.533 67.912 131.309 68.592C130.119 69.272 128.674 69.612 126.974 69.612C125.172 69.612 123.523 69.289 122.027 68.643C120.531 67.963 119.239 67.045 118.151 65.889C117.097 64.699 116.264 63.305 115.652 61.707C115.04 60.075 114.734 58.307 114.734 56.403C114.734 54.567 115.023 52.85 115.601 51.252C116.213 49.654 117.046 48.277 118.1 47.121C119.154 45.931 120.412 44.996 121.874 44.316C123.37 43.636 125.002 43.296 126.77 43.296C127.858 43.296 128.793 43.398 129.575 43.602C130.391 43.806 131.088 44.061 131.666 44.367C132.244 44.673 132.703 45.013 133.043 45.387C133.417 45.727 133.689 46.067 133.859 46.407V32.076H140.54V64.461ZM121.568 56.403C121.568 58.647 122.146 60.398 123.302 61.656C124.492 62.914 125.988 63.543 127.79 63.543C129.524 63.543 130.986 62.914 132.176 61.656C133.366 60.398 133.961 58.63 133.961 56.352C133.961 54.108 133.366 52.391 132.176 51.201C130.986 49.977 129.524 49.365 127.79 49.365C126.056 49.365 124.577 49.977 123.353 51.201C122.163 52.425 121.568 54.159 121.568 56.403ZM142.649 62.166C142.649 61.044 142.836 60.058 143.21 59.208C143.618 58.324 144.162 57.559 144.842 56.913C145.522 56.267 146.304 55.757 147.188 55.383C148.106 55.009 149.092 54.737 150.146 54.567L156.317 53.649C157.031 53.547 157.524 53.343 157.796 53.037C158.068 52.697 158.204 52.306 158.204 51.864C158.204 50.98 157.847 50.215 157.133 49.569C156.453 48.923 155.399 48.6 153.971 48.6C152.475 48.6 151.319 49.008 150.503 49.824C149.721 50.64 149.279 51.592 149.177 52.68L143.159 51.405C143.261 50.419 143.567 49.433 144.077 48.447C144.587 47.461 145.284 46.577 146.168 45.795C147.052 45.013 148.14 44.384 149.432 43.908C150.724 43.398 152.22 43.143 153.92 43.143C155.892 43.143 157.575 43.415 158.969 43.959C160.363 44.469 161.485 45.166 162.335 46.05C163.219 46.9 163.848 47.903 164.222 49.059C164.63 50.215 164.834 51.422 164.834 52.68V65.022C164.834 65.702 164.868 66.433 164.936 67.215C165.004 67.963 165.072 68.558 165.14 69H158.918C158.85 68.66 158.782 68.201 158.714 67.623C158.68 67.011 158.663 66.467 158.663 65.991C158.017 66.977 157.082 67.844 155.858 68.592C154.668 69.34 153.138 69.714 151.268 69.714C149.942 69.714 148.735 69.493 147.647 69.051C146.593 68.643 145.692 68.099 144.944 67.419C144.196 66.705 143.618 65.906 143.21 65.022C142.836 64.104 142.649 63.152 142.649 62.166ZM152.696 64.665C153.41 64.665 154.09 64.58 154.736 64.41C155.416 64.206 156.011 63.883 156.521 63.441C157.031 62.965 157.439 62.37 157.745 61.656C158.051 60.908 158.204 59.973 158.204 58.851V57.729L152.543 58.596C151.659 58.732 150.911 59.055 150.299 59.565C149.721 60.041 149.432 60.772 149.432 61.758C149.432 62.506 149.704 63.186 150.248 63.798C150.792 64.376 151.608 64.665 152.696 64.665ZM179.729 37.686C179.355 37.686 178.947 37.737 178.505 37.839C178.097 37.941 177.723 38.128 177.383 38.4C177.043 38.638 176.754 38.978 176.516 39.42C176.312 39.862 176.21 40.44 176.21 41.154V43.908H181.871V49.722H176.21V69H169.376V49.722H165.194V43.908H169.376V41.052C169.376 39.624 169.58 38.349 169.988 37.227C170.43 36.071 171.042 35.085 171.824 34.269C172.64 33.453 173.609 32.824 174.731 32.382C175.853 31.94 177.111 31.719 178.505 31.719C179.219 31.719 179.882 31.77 180.494 31.872C181.14 31.974 181.599 32.093 181.871 32.229V37.941C181.701 37.873 181.446 37.822 181.106 37.788C180.766 37.72 180.307 37.686 179.729 37.686ZM180.881 62.166C180.881 61.044 181.068 60.058 181.442 59.208C181.85 58.324 182.394 57.559 183.074 56.913C183.754 56.267 184.536 55.757 185.42 55.383C186.338 55.009 187.324 54.737 188.378 54.567L194.549 53.649C195.263 53.547 195.756 53.343 196.028 53.037C196.3 52.697 196.436 52.306 196.436 51.864C196.436 50.98 196.079 50.215 195.365 49.569C194.685 48.923 193.631 48.6 192.203 48.6C190.707 48.6 189.551 49.008 188.735 49.824C187.953 50.64 187.511 51.592 187.409 52.68L181.391 51.405C181.493 50.419 181.799 49.433 182.309 48.447C182.819 47.461 183.516 46.577 184.4 45.795C185.284 45.013 186.372 44.384 187.664 43.908C188.956 43.398 190.452 43.143 192.152 43.143C194.124 43.143 195.807 43.415 197.201 43.959C198.595 44.469 199.717 45.166 200.567 46.05C201.451 46.9 202.08 47.903 202.454 49.059C202.862 50.215 203.066 51.422 203.066 52.68V65.022C203.066 65.702 203.1 66.433 203.168 67.215C203.236 67.963 203.304 68.558 203.372 69H197.15C197.082 68.66 197.014 68.201 196.946 67.623C196.912 67.011 196.895 66.467 196.895 65.991C196.249 66.977 195.314 67.844 194.09 68.592C192.9 69.34 191.37 69.714 189.5 69.714C188.174 69.714 186.967 69.493 185.879 69.051C184.825 68.643 183.924 68.099 183.176 67.419C182.428 66.705 181.85 65.906 181.442 65.022C181.068 64.104 180.881 63.152 180.881 62.166ZM190.928 64.665C191.642 64.665 192.322 64.58 192.968 64.41C193.648 64.206 194.243 63.883 194.753 63.441C195.263 62.965 195.671 62.37 195.977 61.656C196.283 60.908 196.436 59.973 196.436 58.851V57.729L190.775 58.596C189.891 58.732 189.143 59.055 188.531 59.565C187.953 60.041 187.664 60.772 187.664 61.758C187.664 62.506 187.936 63.186 188.48 63.798C189.024 64.376 189.84 64.665 190.928 64.665ZM214.548 43.908H219.597V49.926H214.548V60.432C214.548 61.52 214.786 62.285 215.262 62.727C215.772 63.135 216.52 63.339 217.506 63.339C217.914 63.339 218.322 63.322 218.73 63.288C219.138 63.254 219.427 63.203 219.597 63.135V68.745C219.291 68.881 218.815 69.017 218.169 69.153C217.557 69.289 216.758 69.357 215.772 69.357C213.324 69.357 211.386 68.677 209.958 67.317C208.53 65.957 207.816 64.053 207.816 61.605V49.926H203.277V43.908H204.552C205.878 43.908 206.847 43.534 207.459 42.786C208.105 42.004 208.428 41.052 208.428 39.93V36.411H214.548V43.908ZM232.91 49.416C232.026 49.416 231.193 49.569 230.411 49.875C229.663 50.181 229 50.64 228.422 51.252C227.844 51.83 227.385 52.561 227.045 53.445C226.705 54.329 226.535 55.332 226.535 56.454C226.535 57.576 226.705 58.579 227.045 59.463C227.385 60.347 227.844 61.095 228.422 61.707C229.034 62.319 229.714 62.778 230.462 63.084C231.244 63.39 232.077 63.543 232.961 63.543C233.811 63.543 234.559 63.424 235.205 63.186C235.885 62.914 236.463 62.574 236.939 62.166C237.415 61.758 237.789 61.299 238.061 60.789C238.367 60.279 238.588 59.786 238.724 59.31L244.691 61.299C244.419 62.353 243.96 63.39 243.314 64.41C242.702 65.396 241.903 66.297 240.917 67.113C239.931 67.895 238.775 68.524 237.449 69C236.123 69.51 234.627 69.765 232.961 69.765C231.125 69.765 229.391 69.442 227.759 68.796C226.161 68.116 224.767 67.181 223.577 65.991C222.387 64.801 221.452 63.407 220.772 61.809C220.092 60.177 219.752 58.392 219.752 56.454C219.752 54.516 220.075 52.731 220.721 51.099C221.401 49.467 222.319 48.073 223.475 46.917C224.665 45.727 226.042 44.809 227.606 44.163C229.204 43.483 230.921 43.143 232.757 43.143C234.457 43.143 235.97 43.398 237.296 43.908C238.656 44.384 239.829 45.013 240.815 45.795C241.801 46.577 242.6 47.478 243.212 48.498C243.824 49.518 244.266 50.555 244.538 51.609L238.469 53.649C238.163 52.595 237.568 51.626 236.684 50.742C235.834 49.858 234.576 49.416 232.91 49.416ZM244.48 62.166C244.48 61.044 244.667 60.058 245.041 59.208C245.449 58.324 245.993 57.559 246.673 56.913C247.353 56.267 248.135 55.757 249.019 55.383C249.937 55.009 250.923 54.737 251.977 54.567L258.148 53.649C258.862 53.547 259.355 53.343 259.627 53.037C259.899 52.697 260.035 52.306 260.035 51.864C260.035 50.98 259.678 50.215 258.964 49.569C258.284 48.923 257.23 48.6 255.802 48.6C254.306 48.6 253.15 49.008 252.334 49.824C251.552 50.64 251.11 51.592 251.008 52.68L244.99 51.405C245.092 50.419 245.398 49.433 245.908 48.447C246.418 47.461 247.115 46.577 247.999 45.795C248.883 45.013 249.971 44.384 251.263 43.908C252.555 43.398 254.051 43.143 255.751 43.143C257.723 43.143 259.406 43.415 260.8 43.959C262.194 44.469 263.316 45.166 264.166 46.05C265.05 46.9 265.679 47.903 266.053 49.059C266.461 50.215 266.665 51.422 266.665 52.68V65.022C266.665 65.702 266.699 66.433 266.767 67.215C266.835 67.963 266.903 68.558 266.971 69H260.749C260.681 68.66 260.613 68.201 260.545 67.623C260.511 67.011 260.494 66.467 260.494 65.991C259.848 66.977 258.913 67.844 257.689 68.592C256.499 69.34 254.969 69.714 253.099 69.714C251.773 69.714 250.566 69.493 249.478 69.051C248.424 68.643 247.523 68.099 246.775 67.419C246.027 66.705 245.449 65.906 245.041 65.022C244.667 64.104 244.48 63.152 244.48 62.166ZM254.527 64.665C255.241 64.665 255.921 64.58 256.567 64.41C257.247 64.206 257.842 63.883 258.352 63.441C258.862 62.965 259.27 62.37 259.576 61.656C259.882 60.908 260.035 59.973 260.035 58.851V57.729L254.374 58.596C253.49 58.732 252.742 59.055 252.13 59.565C251.552 60.041 251.263 60.772 251.263 61.758C251.263 62.506 251.535 63.186 252.079 63.798C252.623 64.376 253.439 64.665 254.527 64.665ZM278.146 43.908H283.195V49.926H278.146V60.432C278.146 61.52 278.384 62.285 278.86 62.727C279.37 63.135 280.118 63.339 281.104 63.339C281.512 63.339 281.92 63.322 282.328 63.288C282.736 63.254 283.025 63.203 283.195 63.135V68.745C282.889 68.881 282.413 69.017 281.767 69.153C281.155 69.289 280.356 69.357 279.37 69.357C276.922 69.357 274.984 68.677 273.556 67.317C272.128 65.957 271.414 64.053 271.414 61.605V49.926H266.875V43.908H268.15C269.476 43.908 270.445 43.534 271.057 42.786C271.703 42.004 272.026 41.052 272.026 39.93V36.411H278.146V43.908ZM284.881 64.716C284.881 63.424 285.323 62.336 286.207 61.452C287.125 60.534 288.23 60.075 289.522 60.075C290.168 60.075 290.78 60.194 291.358 60.432C291.936 60.67 292.429 61.01 292.837 61.452C293.279 61.86 293.619 62.353 293.857 62.931C294.095 63.475 294.214 64.07 294.214 64.716C294.214 65.362 294.095 65.974 293.857 66.552C293.619 67.096 293.279 67.589 292.837 68.031C292.429 68.439 291.936 68.762 291.358 69C290.78 69.238 290.168 69.357 289.522 69.357C288.23 69.357 287.125 68.915 286.207 68.031C285.323 67.113 284.881 66.008 284.881 64.716Z" fill="white"/>
<circle cx="50" cy="50" r="49" fill="#141618" stroke="white" stroke-width="2"/>
<path d="M68 69.5H31V31L39.5 40H60L68 31V69.5Z" stroke="white" stroke-width="2"/>
<path d="M15 56L44 56" stroke="white"/>
<path d="M55 56L84 56" stroke="white"/>
<path d="M15 59L44 59" stroke="white"/>
<path d="M55 59L84 59" stroke="white"/>
</svg>
