<svg width="275" height="307" viewBox="0 0 275 307" fill="none" xmlns="http://www.w3.org/2000/svg">
<path d="M41.04 286.898C41.04 288.165 41.0653 289.431 41.116 290.698C41.1667 291.914 41.2427 292.902 41.344 293.662H31.692C31.5907 293.257 31.4893 292.649 31.388 291.838C31.3373 291.027 31.312 290.191 31.312 289.33C30.4507 290.799 29.108 292.041 27.284 293.054C25.5107 294.067 23.3573 294.574 20.824 294.574C18.1387 294.574 15.6813 294.093 13.452 293.13C11.2227 292.117 9.29733 290.749 7.676 289.026C6.10533 287.253 4.864 285.175 3.952 282.794C3.04 280.362 2.584 277.727 2.584 274.89C2.584 272.154 3.01467 269.595 3.876 267.214C4.788 264.833 6.02933 262.781 7.6 261.058C9.17067 259.285 11.0453 257.891 13.224 256.878C15.4533 255.865 17.8853 255.358 20.52 255.358C22.1413 255.358 23.5347 255.51 24.7 255.814C25.916 256.118 26.9547 256.498 27.816 256.954C28.6773 257.41 29.3613 257.917 29.868 258.474C30.4253 258.981 30.8307 259.487 31.084 259.994V238.638H41.04V286.898ZM12.768 274.89C12.768 278.234 13.6293 280.843 15.352 282.718C17.1253 284.593 19.3547 285.53 22.04 285.53C24.624 285.53 26.8027 284.593 28.576 282.718C30.3493 280.843 31.236 278.209 31.236 274.814C31.236 271.47 30.3493 268.911 28.576 267.138C26.8027 265.314 24.624 264.402 22.04 264.402C19.456 264.402 17.252 265.314 15.428 267.138C13.6547 268.962 12.768 271.546 12.768 274.89ZM44.1827 283.478C44.1827 281.806 44.4614 280.337 45.0187 279.07C45.6267 277.753 46.4374 276.613 47.4507 275.65C48.4641 274.687 49.6294 273.927 50.9467 273.37C52.3147 272.813 53.7841 272.407 55.3547 272.154L64.5507 270.786C65.6147 270.634 66.3494 270.33 66.7547 269.874C67.1601 269.367 67.3627 268.785 67.3627 268.126C67.3627 266.809 66.8307 265.669 65.7667 264.706C64.7534 263.743 63.1827 263.262 61.0547 263.262C58.8254 263.262 57.1027 263.87 55.8867 265.086C54.7214 266.302 54.0627 267.721 53.9107 269.342L44.9427 267.442C45.0947 265.973 45.5507 264.503 46.3107 263.034C47.0707 261.565 48.1094 260.247 49.4267 259.082C50.7441 257.917 52.3654 256.979 54.2907 256.27C56.2161 255.51 58.4454 255.13 60.9787 255.13C63.9174 255.13 66.4254 255.535 68.5027 256.346C70.5801 257.106 72.2521 258.145 73.5187 259.462C74.8361 260.729 75.7734 262.223 76.3307 263.946C76.9387 265.669 77.2427 267.467 77.2427 269.342V287.734C77.2427 288.747 77.2934 289.837 77.3947 291.002C77.4961 292.117 77.5974 293.003 77.6987 293.662H68.4267C68.3254 293.155 68.2241 292.471 68.1227 291.61C68.0721 290.698 68.0467 289.887 68.0467 289.178C67.0841 290.647 65.6907 291.939 63.8667 293.054C62.0934 294.169 59.8134 294.726 57.0267 294.726C55.0507 294.726 53.2521 294.397 51.6307 293.738C50.0601 293.13 48.7174 292.319 47.6027 291.306C46.4881 290.242 45.6267 289.051 45.0187 287.734C44.4614 286.366 44.1827 284.947 44.1827 283.478ZM59.1547 287.202C60.2187 287.202 61.2321 287.075 62.1947 286.822C63.2081 286.518 64.0947 286.037 64.8547 285.378C65.6147 284.669 66.2227 283.782 66.6787 282.718C67.1347 281.603 67.3627 280.21 67.3627 278.538V276.866L58.9267 278.158C57.6094 278.361 56.4947 278.842 55.5827 279.602C54.7214 280.311 54.2907 281.401 54.2907 282.87C54.2907 283.985 54.6961 284.998 55.5067 285.91C56.3174 286.771 57.5334 287.202 59.1547 287.202ZM99.4395 246.998C98.8821 246.998 98.2741 247.074 97.6155 247.226C97.0075 247.378 96.4501 247.657 95.9435 248.062C95.4368 248.417 95.0061 248.923 94.6515 249.582C94.3475 250.241 94.1955 251.102 94.1955 252.166V256.27H102.631V264.934H94.1955V293.662H84.0115V264.934H77.7795V256.27H84.0115V252.014C84.0115 249.886 84.3155 247.986 84.9235 246.314C85.5821 244.591 86.4941 243.122 87.6595 241.906C88.8755 240.69 90.3195 239.753 91.9915 239.094C93.6635 238.435 95.5381 238.106 97.6155 238.106C98.6795 238.106 99.6675 238.182 100.579 238.334C101.542 238.486 102.226 238.663 102.631 238.866V247.378C102.378 247.277 101.998 247.201 101.491 247.15C100.985 247.049 100.301 246.998 99.4395 246.998ZM101.156 283.478C101.156 281.806 101.435 280.337 101.992 279.07C102.6 277.753 103.411 276.613 104.424 275.65C105.437 274.687 106.603 273.927 107.92 273.37C109.288 272.813 110.757 272.407 112.328 272.154L121.524 270.786C122.588 270.634 123.323 270.33 123.728 269.874C124.133 269.367 124.336 268.785 124.336 268.126C124.336 266.809 123.804 265.669 122.74 264.706C121.727 263.743 120.156 263.262 118.028 263.262C115.799 263.262 114.076 263.87 112.86 265.086C111.695 266.302 111.036 267.721 110.884 269.342L101.916 267.442C102.068 265.973 102.524 264.503 103.284 263.034C104.044 261.565 105.083 260.247 106.4 259.082C107.717 257.917 109.339 256.979 111.264 256.27C113.189 255.51 115.419 255.13 117.952 255.13C120.891 255.13 123.399 255.535 125.476 256.346C127.553 257.106 129.225 258.145 130.492 259.462C131.809 260.729 132.747 262.223 133.304 263.946C133.912 265.669 134.216 267.467 134.216 269.342V287.734C134.216 288.747 134.267 289.837 134.368 291.002C134.469 292.117 134.571 293.003 134.672 293.662H125.4C125.299 293.155 125.197 292.471 125.096 291.61C125.045 290.698 125.02 289.887 125.02 289.178C124.057 290.647 122.664 291.939 120.84 293.054C119.067 294.169 116.787 294.726 114 294.726C112.024 294.726 110.225 294.397 108.604 293.738C107.033 293.13 105.691 292.319 104.576 291.306C103.461 290.242 102.6 289.051 101.992 287.734C101.435 286.366 101.156 284.947 101.156 283.478ZM116.128 287.202C117.192 287.202 118.205 287.075 119.168 286.822C120.181 286.518 121.068 286.037 121.828 285.378C122.588 284.669 123.196 283.782 123.652 282.718C124.108 281.603 124.336 280.21 124.336 278.538V276.866L115.9 278.158C114.583 278.361 113.468 278.842 112.556 279.602C111.695 280.311 111.264 281.401 111.264 282.87C111.264 283.985 111.669 284.998 112.48 285.91C113.291 286.771 114.507 287.202 116.128 287.202ZM151.326 256.27H158.85V265.238H151.326V280.894C151.326 282.515 151.681 283.655 152.39 284.314C153.15 284.922 154.265 285.226 155.734 285.226C156.342 285.226 156.95 285.201 157.558 285.15C158.166 285.099 158.597 285.023 158.85 284.922V293.282C158.394 293.485 157.685 293.687 156.722 293.89C155.81 294.093 154.619 294.194 153.15 294.194C149.502 294.194 146.614 293.181 144.486 291.154C142.358 289.127 141.294 286.29 141.294 282.642V265.238H134.53V256.27H136.43C138.406 256.27 139.85 255.713 140.762 254.598C141.725 253.433 142.206 252.014 142.206 250.342V245.098H151.326V256.27ZM178.541 264.478C177.224 264.478 175.983 264.706 174.817 265.162C173.703 265.618 172.715 266.302 171.853 267.214C170.992 268.075 170.308 269.165 169.801 270.482C169.295 271.799 169.041 273.294 169.041 274.966C169.041 276.638 169.295 278.133 169.801 279.45C170.308 280.767 170.992 281.882 171.853 282.794C172.765 283.706 173.779 284.39 174.893 284.846C176.059 285.302 177.3 285.53 178.617 285.53C179.884 285.53 180.999 285.353 181.961 284.998C182.975 284.593 183.836 284.086 184.545 283.478C185.255 282.87 185.812 282.186 186.217 281.426C186.673 280.666 187.003 279.931 187.205 279.222L196.097 282.186C195.692 283.757 195.008 285.302 194.045 286.822C193.133 288.291 191.943 289.634 190.473 290.85C189.004 292.015 187.281 292.953 185.305 293.662C183.329 294.422 181.1 294.802 178.617 294.802C175.881 294.802 173.297 294.321 170.865 293.358C168.484 292.345 166.407 290.951 164.633 289.178C162.86 287.405 161.467 285.327 160.453 282.946C159.44 280.514 158.933 277.854 158.933 274.966C158.933 272.078 159.415 269.418 160.377 266.986C161.391 264.554 162.759 262.477 164.481 260.754C166.255 258.981 168.307 257.613 170.637 256.65C173.019 255.637 175.577 255.13 178.313 255.13C180.847 255.13 183.101 255.51 185.077 256.27C187.104 256.979 188.852 257.917 190.321 259.082C191.791 260.247 192.981 261.59 193.893 263.11C194.805 264.63 195.464 266.175 195.869 267.746L186.825 270.786C186.369 269.215 185.483 267.771 184.165 266.454C182.899 265.137 181.024 264.478 178.541 264.478ZM195.782 283.478C195.782 281.806 196.061 280.337 196.618 279.07C197.226 277.753 198.037 276.613 199.05 275.65C200.063 274.687 201.229 273.927 202.546 273.37C203.914 272.813 205.383 272.407 206.954 272.154L216.15 270.786C217.214 270.634 217.949 270.33 218.354 269.874C218.759 269.367 218.962 268.785 218.962 268.126C218.962 266.809 218.43 265.669 217.366 264.706C216.353 263.743 214.782 263.262 212.654 263.262C210.425 263.262 208.702 263.87 207.486 265.086C206.321 266.302 205.662 267.721 205.51 269.342L196.542 267.442C196.694 265.973 197.15 264.503 197.91 263.034C198.67 261.565 199.709 260.247 201.026 259.082C202.343 257.917 203.965 256.979 205.89 256.27C207.815 255.51 210.045 255.13 212.578 255.13C215.517 255.13 218.025 255.535 220.102 256.346C222.179 257.106 223.851 258.145 225.118 259.462C226.435 260.729 227.373 262.223 227.93 263.946C228.538 265.669 228.842 267.467 228.842 269.342V287.734C228.842 288.747 228.893 289.837 228.994 291.002C229.095 292.117 229.197 293.003 229.298 293.662H220.026C219.925 293.155 219.823 292.471 219.722 291.61C219.671 290.698 219.646 289.887 219.646 289.178C218.683 290.647 217.29 291.939 215.466 293.054C213.693 294.169 211.413 294.726 208.626 294.726C206.65 294.726 204.851 294.397 203.23 293.738C201.659 293.13 200.317 292.319 199.202 291.306C198.087 290.242 197.226 289.051 196.618 287.734C196.061 286.366 195.782 284.947 195.782 283.478ZM210.754 287.202C211.818 287.202 212.831 287.075 213.794 286.822C214.807 286.518 215.694 286.037 216.454 285.378C217.214 284.669 217.822 283.782 218.278 282.718C218.734 281.603 218.962 280.21 218.962 278.538V276.866L210.526 278.158C209.209 278.361 208.094 278.842 207.182 279.602C206.321 280.311 205.89 281.401 205.89 282.87C205.89 283.985 206.295 284.998 207.106 285.91C207.917 286.771 209.133 287.202 210.754 287.202ZM245.952 256.27H253.476V265.238H245.952V280.894C245.952 282.515 246.307 283.655 247.016 284.314C247.776 284.922 248.891 285.226 250.36 285.226C250.968 285.226 251.576 285.201 252.184 285.15C252.792 285.099 253.223 285.023 253.476 284.922V293.282C253.02 293.485 252.311 293.687 251.348 293.89C250.436 294.093 249.245 294.194 247.776 294.194C244.128 294.194 241.24 293.181 239.112 291.154C236.984 289.127 235.92 286.29 235.92 282.642V265.238H229.156V256.27H231.056C233.032 256.27 234.476 255.713 235.388 254.598C236.351 253.433 236.832 252.014 236.832 250.342V245.098H245.952V256.27ZM255.988 287.278C255.988 285.353 256.646 283.731 257.964 282.414C259.332 281.046 260.978 280.362 262.904 280.362C263.866 280.362 264.778 280.539 265.64 280.894C266.501 281.249 267.236 281.755 267.844 282.414C268.502 283.022 269.009 283.757 269.364 284.618C269.718 285.429 269.896 286.315 269.896 287.278C269.896 288.241 269.718 289.153 269.364 290.014C269.009 290.825 268.502 291.559 267.844 292.218C267.236 292.826 266.501 293.307 265.64 293.662C264.778 294.017 263.866 294.194 262.904 294.194C260.978 294.194 259.332 293.535 257.964 292.218C256.646 290.85 255.988 289.203 255.988 287.278Z" fill="white"/>
<circle cx="137.386" cy="112.386" r="110.386" fill="#141618" stroke="white" stroke-width="4"/>
<path d="M177.845 156.222H94.6791V69.6846L113.785 89.914H159.863L177.845 69.6846V156.222Z" stroke="white" stroke-width="4"/>
<path d="M58.7151 125.881L123.899 125.881" stroke="white" stroke-width="4"/>
<path d="M148.623 125.881L213.807 125.881" stroke="white" stroke-width="4"/>
<path d="M58.7151 132.617L123.899 132.617" stroke="white" stroke-width="4"/>
<path d="M148.623 132.617L213.807 132.617" stroke="white" stroke-width="4"/>
</svg>
