<svg width="275" height="484" viewBox="0 0 275 484" fill="none" xmlns="http://www.w3.org/2000/svg">
<path d="M41.04 286.898C41.04 288.165 41.0653 289.431 41.116 290.698C41.1667 291.914 41.2427 292.902 41.344 293.662H31.692C31.5907 293.257 31.4893 292.649 31.388 291.838C31.3373 291.027 31.312 290.191 31.312 289.33C30.4507 290.799 29.108 292.041 27.284 293.054C25.5107 294.067 23.3573 294.574 20.824 294.574C18.1387 294.574 15.6813 294.093 13.452 293.13C11.2227 292.117 9.29733 290.749 7.676 289.026C6.10533 287.253 4.864 285.175 3.952 282.794C3.04 280.362 2.584 277.727 2.584 274.89C2.584 272.154 3.01467 269.595 3.876 267.214C4.788 264.833 6.02933 262.781 7.6 261.058C9.17067 259.285 11.0453 257.891 13.224 256.878C15.4533 255.865 17.8853 255.358 20.52 255.358C22.1413 255.358 23.5347 255.51 24.7 255.814C25.916 256.118 26.9547 256.498 27.816 256.954C28.6773 257.41 29.3613 257.917 29.868 258.474C30.4253 258.981 30.8307 259.487 31.084 259.994V238.638H41.04V286.898ZM12.768 274.89C12.768 278.234 13.6293 280.843 15.352 282.718C17.1253 284.593 19.3547 285.53 22.04 285.53C24.624 285.53 26.8027 284.593 28.576 282.718C30.3493 280.843 31.236 278.209 31.236 274.814C31.236 271.47 30.3493 268.911 28.576 267.138C26.8027 265.314 24.624 264.402 22.04 264.402C19.456 264.402 17.252 265.314 15.428 267.138C13.6547 268.962 12.768 271.546 12.768 274.89ZM44.1827 283.478C44.1827 281.806 44.4614 280.337 45.0187 279.07C45.6267 277.753 46.4374 276.613 47.4507 275.65C48.4641 274.687 49.6294 273.927 50.9467 273.37C52.3147 272.813 53.7841 272.407 55.3547 272.154L64.5507 270.786C65.6147 270.634 66.3494 270.33 66.7547 269.874C67.1601 269.367 67.3627 268.785 67.3627 268.126C67.3627 266.809 66.8307 265.669 65.7667 264.706C64.7534 263.743 63.1827 263.262 61.0547 263.262C58.8254 263.262 57.1027 263.87 55.8867 265.086C54.7214 266.302 54.0627 267.721 53.9107 269.342L44.9427 267.442C45.0947 265.973 45.5507 264.503 46.3107 263.034C47.0707 261.565 48.1094 260.247 49.4267 259.082C50.7441 257.917 52.3654 256.979 54.2907 256.27C56.2161 255.51 58.4454 255.13 60.9787 255.13C63.9174 255.13 66.4254 255.535 68.5027 256.346C70.5801 257.106 72.2521 258.145 73.5187 259.462C74.8361 260.729 75.7734 262.223 76.3307 263.946C76.9387 265.669 77.2427 267.467 77.2427 269.342V287.734C77.2427 288.747 77.2934 289.837 77.3947 291.002C77.4961 292.117 77.5974 293.003 77.6987 293.662H68.4267C68.3254 293.155 68.2241 292.471 68.1227 291.61C68.0721 290.698 68.0467 289.887 68.0467 289.178C67.0841 290.647 65.6907 291.939 63.8667 293.054C62.0934 294.169 59.8134 294.726 57.0267 294.726C55.0507 294.726 53.2521 294.397 51.6307 293.738C50.0601 293.13 48.7174 292.319 47.6027 291.306C46.4881 290.242 45.6267 289.051 45.0187 287.734C44.4614 286.366 44.1827 284.947 44.1827 283.478ZM59.1547 287.202C60.2187 287.202 61.2321 287.075 62.1947 286.822C63.2081 286.518 64.0947 286.037 64.8547 285.378C65.6147 284.669 66.2227 283.782 66.6787 282.718C67.1347 281.603 67.3627 280.21 67.3627 278.538V276.866L58.9267 278.158C57.6094 278.361 56.4947 278.842 55.5827 279.602C54.7214 280.311 54.2907 281.401 54.2907 282.87C54.2907 283.985 54.6961 284.998 55.5067 285.91C56.3174 286.771 57.5334 287.202 59.1547 287.202ZM99.4395 246.998C98.8821 246.998 98.2741 247.074 97.6155 247.226C97.0075 247.378 96.4501 247.657 95.9435 248.062C95.4368 248.417 95.0061 248.923 94.6515 249.582C94.3475 250.241 94.1955 251.102 94.1955 252.166V256.27H102.631V264.934H94.1955V293.662H84.0115V264.934H77.7795V256.27H84.0115V252.014C84.0115 249.886 84.3155 247.986 84.9235 246.314C85.5821 244.591 86.4941 243.122 87.6595 241.906C88.8755 240.69 90.3195 239.753 91.9915 239.094C93.6635 238.435 95.5381 238.106 97.6155 238.106C98.6795 238.106 99.6675 238.182 100.579 238.334C101.542 238.486 102.226 238.663 102.631 238.866V247.378C102.378 247.277 101.998 247.201 101.491 247.15C100.985 247.049 100.301 246.998 99.4395 246.998ZM101.156 283.478C101.156 281.806 101.435 280.337 101.992 279.07C102.6 277.753 103.411 276.613 104.424 275.65C105.437 274.687 106.603 273.927 107.92 273.37C109.288 272.813 110.757 272.407 112.328 272.154L121.524 270.786C122.588 270.634 123.323 270.33 123.728 269.874C124.133 269.367 124.336 268.785 124.336 268.126C124.336 266.809 123.804 265.669 122.74 264.706C121.727 263.743 120.156 263.262 118.028 263.262C115.799 263.262 114.076 263.87 112.86 265.086C111.695 266.302 111.036 267.721 110.884 269.342L101.916 267.442C102.068 265.973 102.524 264.503 103.284 263.034C104.044 261.565 105.083 260.247 106.4 259.082C107.717 257.917 109.339 256.979 111.264 256.27C113.189 255.51 115.419 255.13 117.952 255.13C120.891 255.13 123.399 255.535 125.476 256.346C127.553 257.106 129.225 258.145 130.492 259.462C131.809 260.729 132.747 262.223 133.304 263.946C133.912 265.669 134.216 267.467 134.216 269.342V287.734C134.216 288.747 134.267 289.837 134.368 291.002C134.469 292.117 134.571 293.003 134.672 293.662H125.4C125.299 293.155 125.197 292.471 125.096 291.61C125.045 290.698 125.02 289.887 125.02 289.178C124.057 290.647 122.664 291.939 120.84 293.054C119.067 294.169 116.787 294.726 114 294.726C112.024 294.726 110.225 294.397 108.604 293.738C107.033 293.13 105.691 292.319 104.576 291.306C103.461 290.242 102.6 289.051 101.992 287.734C101.435 286.366 101.156 284.947 101.156 283.478ZM116.128 287.202C117.192 287.202 118.205 287.075 119.168 286.822C120.181 286.518 121.068 286.037 121.828 285.378C122.588 284.669 123.196 283.782 123.652 282.718C124.108 281.603 124.336 280.21 124.336 278.538V276.866L115.9 278.158C114.583 278.361 113.468 278.842 112.556 279.602C111.695 280.311 111.264 281.401 111.264 282.87C111.264 283.985 111.669 284.998 112.48 285.91C113.291 286.771 114.507 287.202 116.128 287.202ZM151.326 256.27H158.85V265.238H151.326V280.894C151.326 282.515 151.681 283.655 152.39 284.314C153.15 284.922 154.265 285.226 155.734 285.226C156.342 285.226 156.95 285.201 157.558 285.15C158.166 285.099 158.597 285.023 158.85 284.922V293.282C158.394 293.485 157.685 293.687 156.722 293.89C155.81 294.093 154.619 294.194 153.15 294.194C149.502 294.194 146.614 293.181 144.486 291.154C142.358 289.127 141.294 286.29 141.294 282.642V265.238H134.53V256.27H136.43C138.406 256.27 139.85 255.713 140.762 254.598C141.725 253.433 142.206 252.014 142.206 250.342V245.098H151.326V256.27ZM178.541 264.478C177.224 264.478 175.983 264.706 174.817 265.162C173.703 265.618 172.715 266.302 171.853 267.214C170.992 268.075 170.308 269.165 169.801 270.482C169.295 271.799 169.041 273.294 169.041 274.966C169.041 276.638 169.295 278.133 169.801 279.45C170.308 280.767 170.992 281.882 171.853 282.794C172.765 283.706 173.779 284.39 174.893 284.846C176.059 285.302 177.3 285.53 178.617 285.53C179.884 285.53 180.999 285.353 181.961 284.998C182.975 284.593 183.836 284.086 184.545 283.478C185.255 282.87 185.812 282.186 186.217 281.426C186.673 280.666 187.003 279.931 187.205 279.222L196.097 282.186C195.692 283.757 195.008 285.302 194.045 286.822C193.133 288.291 191.943 289.634 190.473 290.85C189.004 292.015 187.281 292.953 185.305 293.662C183.329 294.422 181.1 294.802 178.617 294.802C175.881 294.802 173.297 294.321 170.865 293.358C168.484 292.345 166.407 290.951 164.633 289.178C162.86 287.405 161.467 285.327 160.453 282.946C159.44 280.514 158.933 277.854 158.933 274.966C158.933 272.078 159.415 269.418 160.377 266.986C161.391 264.554 162.759 262.477 164.481 260.754C166.255 258.981 168.307 257.613 170.637 256.65C173.019 255.637 175.577 255.13 178.313 255.13C180.847 255.13 183.101 255.51 185.077 256.27C187.104 256.979 188.852 257.917 190.321 259.082C191.791 260.247 192.981 261.59 193.893 263.11C194.805 264.63 195.464 266.175 195.869 267.746L186.825 270.786C186.369 269.215 185.483 267.771 184.165 266.454C182.899 265.137 181.024 264.478 178.541 264.478ZM195.782 283.478C195.782 281.806 196.061 280.337 196.618 279.07C197.226 277.753 198.037 276.613 199.05 275.65C200.063 274.687 201.229 273.927 202.546 273.37C203.914 272.813 205.383 272.407 206.954 272.154L216.15 270.786C217.214 270.634 217.949 270.33 218.354 269.874C218.759 269.367 218.962 268.785 218.962 268.126C218.962 266.809 218.43 265.669 217.366 264.706C216.353 263.743 214.782 263.262 212.654 263.262C210.425 263.262 208.702 263.87 207.486 265.086C206.321 266.302 205.662 267.721 205.51 269.342L196.542 267.442C196.694 265.973 197.15 264.503 197.91 263.034C198.67 261.565 199.709 260.247 201.026 259.082C202.343 257.917 203.965 256.979 205.89 256.27C207.815 255.51 210.045 255.13 212.578 255.13C215.517 255.13 218.025 255.535 220.102 256.346C222.179 257.106 223.851 258.145 225.118 259.462C226.435 260.729 227.373 262.223 227.93 263.946C228.538 265.669 228.842 267.467 228.842 269.342V287.734C228.842 288.747 228.893 289.837 228.994 291.002C229.095 292.117 229.197 293.003 229.298 293.662H220.026C219.925 293.155 219.823 292.471 219.722 291.61C219.671 290.698 219.646 289.887 219.646 289.178C218.683 290.647 217.29 291.939 215.466 293.054C213.693 294.169 211.413 294.726 208.626 294.726C206.65 294.726 204.851 294.397 203.23 293.738C201.659 293.13 200.317 292.319 199.202 291.306C198.087 290.242 197.226 289.051 196.618 287.734C196.061 286.366 195.782 284.947 195.782 283.478ZM210.754 287.202C211.818 287.202 212.831 287.075 213.794 286.822C214.807 286.518 215.694 286.037 216.454 285.378C217.214 284.669 217.822 283.782 218.278 282.718C218.734 281.603 218.962 280.21 218.962 278.538V276.866L210.526 278.158C209.209 278.361 208.094 278.842 207.182 279.602C206.321 280.311 205.89 281.401 205.89 282.87C205.89 283.985 206.295 284.998 207.106 285.91C207.917 286.771 209.133 287.202 210.754 287.202ZM245.952 256.27H253.476V265.238H245.952V280.894C245.952 282.515 246.307 283.655 247.016 284.314C247.776 284.922 248.891 285.226 250.36 285.226C250.968 285.226 251.576 285.201 252.184 285.15C252.792 285.099 253.223 285.023 253.476 284.922V293.282C253.02 293.485 252.311 293.687 251.348 293.89C250.436 294.093 249.245 294.194 247.776 294.194C244.128 294.194 241.24 293.181 239.112 291.154C236.984 289.127 235.92 286.29 235.92 282.642V265.238H229.156V256.27H231.056C233.032 256.27 234.476 255.713 235.388 254.598C236.351 253.433 236.832 252.014 236.832 250.342V245.098H245.952V256.27ZM255.988 287.278C255.988 285.353 256.646 283.731 257.964 282.414C259.332 281.046 260.978 280.362 262.904 280.362C263.866 280.362 264.778 280.539 265.64 280.894C266.501 281.249 267.236 281.755 267.844 282.414C268.502 283.022 269.009 283.757 269.364 284.618C269.718 285.429 269.896 286.315 269.896 287.278C269.896 288.241 269.718 289.153 269.364 290.014C269.009 290.825 268.502 291.559 267.844 292.218C267.236 292.826 266.501 293.307 265.64 293.662C264.778 294.017 263.866 294.194 262.904 294.194C260.978 294.194 259.332 293.535 257.964 292.218C256.646 290.85 255.988 289.203 255.988 287.278Z" fill="white"/>
<circle cx="137.386" cy="112.386" r="110.386" fill="#141618" stroke="white" stroke-width="4"/>
<path d="M177.845 156.222H94.6791V69.6846L113.785 89.914H159.863L177.845 69.6846V156.222Z" stroke="white" stroke-width="4"/>
<path d="M58.7151 125.881L123.899 125.881" stroke="white" stroke-width="4"/>
<path d="M148.623 125.881L213.807 125.881" stroke="white" stroke-width="4"/>
<path d="M58.7151 132.617L123.899 132.617" stroke="white" stroke-width="4"/>
<path d="M148.623 132.617L213.807 132.617" stroke="white" stroke-width="4"/>
<path d="M60.275 458.625C54.9 458.625 51.2 462.4 51.2 467.925C51.125 473.425 54.95 477.325 60.275 477.25C64.7 477.25 68.1 474.725 68.8 470.925H65.275C64.675 472.925 62.725 474.25 60.25 474.25C56.95 474.25 54.675 471.825 54.675 467.925C54.675 464.15 56.875 461.6 60.275 461.6C62.75 461.6 64.65 462.9 65.275 464.925H68.8C68.1 461.125 64.7 458.625 60.275 458.625ZM76.3951 463.675C72.1701 463.675 69.2451 466.425 69.2451 470.45C69.2451 474.5 72.1701 477.25 76.3951 477.25C80.6201 477.25 83.5451 474.5 83.5451 470.45C83.5451 466.425 80.6201 463.675 76.3951 463.675ZM76.4201 474.525C74.0201 474.525 72.4701 472.975 72.4701 470.475C72.4701 467.975 74.0201 466.375 76.4451 466.375C78.7701 466.375 80.3451 467.95 80.3451 470.45C80.3451 472.925 78.8201 474.525 76.4201 474.525ZM103.757 468.45C103.757 465.45 102.132 463.675 99.2316 463.675C97.3066 463.675 95.7066 464.55 94.9816 465.975C94.4066 464.55 92.9816 463.675 91.1816 463.675C89.5816 463.675 88.2816 464.35 87.5066 465.55L87.2816 463.925H84.5066V477H87.6566V469.325C87.6566 467.5 88.6066 466.325 90.2816 466.325C91.7566 466.325 92.5816 467.2 92.5816 469V477H95.6816V469.475C95.6816 467.5 96.6316 466.325 98.3316 466.325C99.7566 466.325 100.607 467.15 100.607 468.775V477H103.757V468.45ZM124.834 468.45C124.834 465.45 123.209 463.675 120.309 463.675C118.384 463.675 116.784 464.55 116.059 465.975C115.484 464.55 114.059 463.675 112.259 463.675C110.659 463.675 109.359 464.35 108.584 465.55L108.359 463.925H105.584V477H108.734V469.325C108.734 467.5 109.684 466.325 111.359 466.325C112.834 466.325 113.659 467.2 113.659 469V477H116.759V469.475C116.759 467.5 117.709 466.325 119.409 466.325C120.834 466.325 121.684 467.15 121.684 468.775V477H124.834V468.45ZM126.086 459.6C126.086 460.7 126.886 461.525 128.261 461.525C129.586 461.525 130.411 460.7 130.411 459.6C130.411 458.525 129.586 457.75 128.261 457.75C126.886 457.75 126.086 458.525 126.086 459.6ZM126.686 463.925V477H129.836V463.925H126.686ZM131.722 463.925V477H134.872V469.975C134.872 467.7 136.172 466.325 138.097 466.325C139.772 466.325 140.747 467.3 140.747 469.225V477H143.897V468.775C143.897 465.575 142.222 463.675 139.122 463.675C137.297 463.675 135.672 464.5 134.897 465.825L134.622 463.925H131.722ZM145.443 477.675C145.843 480.65 148.368 482.5 152.143 482.5C156.418 482.5 159.193 480.1 159.193 476.125V463.925H156.418L156.218 465.75C155.343 464.475 153.468 463.675 151.393 463.675C147.568 463.675 144.968 466.375 144.968 470.15C144.968 473.95 147.618 476.6 151.393 476.6C153.418 476.6 155.243 475.8 156.043 474.6V476.325C156.043 478.55 154.493 479.95 152.093 479.95C150.118 479.95 148.668 479.05 148.368 477.675H145.443ZM156.043 470.25C156.043 471.375 155.668 472.3 154.893 473C154.143 473.675 153.193 474.025 152.018 474.025C149.643 474.025 148.168 472.425 148.168 470.125C148.168 467.8 149.718 466.25 152.043 466.25C154.368 466.25 156.043 467.675 156.043 469.95V470.25ZM163.98 473C164.03 474.275 164.555 475.325 165.58 476.1C166.605 476.875 167.955 477.25 169.63 477.25C172.93 477.25 175.105 475.575 175.105 473C175.105 471.1 173.93 469.675 171.505 469.3L168.955 468.875C167.955 468.7 167.255 468.4 167.255 467.525C167.255 466.6 168.13 465.975 169.455 465.975C170.88 465.975 171.88 466.65 171.955 467.75H174.78C174.755 466.525 174.23 465.525 173.255 464.8C172.28 464.05 170.98 463.675 169.405 463.675C166.23 463.675 164.13 465.3 164.13 467.775C164.13 469.9 165.68 471.025 168.055 471.425L170.43 471.825C171.33 472 171.955 472.475 171.955 473.3C171.955 474.3 171.13 474.925 169.63 474.925C168.105 474.925 167.03 474.2 166.955 473H163.98ZM182.659 463.675C178.434 463.675 175.509 466.425 175.509 470.45C175.509 474.5 178.434 477.25 182.659 477.25C186.884 477.25 189.809 474.5 189.809 470.45C189.809 466.425 186.884 463.675 182.659 463.675ZM182.684 474.525C180.284 474.525 178.734 472.975 178.734 470.475C178.734 467.975 180.284 466.375 182.709 466.375C185.034 466.375 186.609 467.95 186.609 470.45C186.609 472.925 185.084 474.525 182.684 474.525ZM197.291 463.675C193.066 463.675 190.141 466.425 190.141 470.45C190.141 474.5 193.066 477.25 197.291 477.25C201.516 477.25 204.441 474.5 204.441 470.45C204.441 466.425 201.516 463.675 197.291 463.675ZM197.316 474.525C194.916 474.525 193.366 472.975 193.366 470.475C193.366 467.975 194.916 466.375 197.341 466.375C199.666 466.375 201.241 467.95 201.241 470.45C201.241 472.925 199.716 474.525 197.316 474.525ZM205.402 463.925V477H208.552V469.975C208.552 467.7 209.852 466.325 211.777 466.325C213.452 466.325 214.427 467.3 214.427 469.225V477H217.577V468.775C217.577 465.575 215.902 463.675 212.802 463.675C210.977 463.675 209.352 464.5 208.577 465.825L208.302 463.925H205.402ZM218.399 475.1C218.399 476.325 219.324 477.225 220.549 477.225C221.749 477.225 222.674 476.325 222.674 475.1C222.674 473.9 221.749 473.025 220.549 473.025C219.324 473.025 218.399 473.9 218.399 475.1Z" fill="white"/>
<path d="M37.88 309.5V324H42.74C47.24 324 50.16 321.36 50.16 316.74C50.16 312.38 47.44 309.5 42.74 309.5H37.88ZM43.04 322.42H39.58V311.06H43.04C46.22 311.06 48.36 313.3 48.36 316.76C48.36 320.16 46.28 322.42 43.04 322.42ZM51.252 309.88C51.252 310.58 51.772 311.06 52.552 311.06C53.292 311.06 53.812 310.58 53.812 309.88C53.812 309.24 53.272 308.74 52.552 308.74C51.772 308.74 51.252 309.24 51.252 309.88ZM51.712 313.74V324H53.372V313.74H51.712ZM55.0478 324.8C55.2278 325.9 55.7878 326.78 56.6878 327.42C57.5878 328.08 58.7278 328.4 60.1078 328.4C63.3478 328.4 65.4078 326.46 65.4078 323.46V313.74H63.9078L63.8078 315.42C63.1078 314.28 61.5478 313.54 59.7878 313.54C56.7678 313.54 54.6878 315.7 54.6878 318.66C54.6878 321.64 56.7678 323.76 59.7478 323.76C61.5278 323.76 63.0478 323 63.7478 321.82V323.52C63.7478 325.66 62.3278 326.98 60.1078 326.98C58.2678 326.98 56.9078 326.14 56.6078 324.8H55.0478ZM63.7478 318.78C63.7478 320.96 62.0878 322.32 59.9678 322.32C57.7478 322.32 56.4078 320.82 56.4078 318.64C56.4078 316.38 57.8278 314.98 60.0078 314.98C62.1878 314.98 63.7478 316.32 63.7478 318.5V318.78ZM66.9677 309.88C66.9677 310.58 67.4877 311.06 68.2677 311.06C69.0077 311.06 69.5277 310.58 69.5277 309.88C69.5277 309.24 68.9877 308.74 68.2677 308.74C67.4877 308.74 66.9677 309.24 66.9677 309.88ZM67.4277 313.74V324H69.0877V313.74H67.4277ZM72.9286 315.16V324H74.5886V315.16H77.7286V313.74H74.5886V310.84L72.9286 310.92V313.74H69.7686V315.16H72.9286ZM77.8558 321.32C77.8558 322.18 78.1758 322.88 78.7958 323.42C79.4158 323.94 80.2158 324.2 81.1958 324.2C82.0958 324.2 82.9358 324 83.7158 323.58C84.4958 323.16 85.0158 322.6 85.3158 321.94L85.4158 324H86.8958V317.74C86.8958 314.94 85.2158 313.54 82.6358 313.54C81.3158 313.54 80.2358 313.86 79.4158 314.52C78.5958 315.18 78.1958 316.06 78.1758 317.18H79.7558C79.6558 315.76 80.7958 314.92 82.5558 314.92C84.2158 314.92 85.2558 315.78 85.2558 317.46V317.82L81.6358 318.24C79.2358 318.5 77.8558 319.5 77.8558 321.32ZM85.2558 319.44C85.2158 320.92 83.8758 322.82 81.6558 322.82C80.3558 322.82 79.5558 322.22 79.5558 321.2C79.5558 320.24 80.2158 319.64 81.9558 319.4L85.2558 319V319.44ZM88.8912 309V324H90.5512V309H88.8912ZM106.676 318.82C106.676 315.68 104.556 313.54 101.576 313.54C99.7564 313.54 98.2364 314.3 97.5164 315.5L97.3964 313.74H95.8764V328H97.5364V322.44C98.3364 323.54 99.7564 324.2 101.456 324.2C104.516 324.2 106.676 322.04 106.676 318.82ZM104.976 318.84C104.976 321.3 103.536 322.74 101.276 322.74C99.0164 322.74 97.5364 321.24 97.5364 319V318.72C97.5364 316.38 99.0764 315 101.316 315C103.576 315 104.976 316.5 104.976 318.84ZM113.193 313.68C113.013 313.62 112.773 313.6 112.513 313.6C111.153 313.6 110.113 314.26 109.633 315.48L109.433 313.74H107.973V324H109.633V318.54C109.633 316.52 110.693 315.18 112.553 315.18C112.813 315.18 113.033 315.2 113.193 315.22V313.68ZM118.656 313.54C115.496 313.54 113.156 315.72 113.156 318.86C113.156 322.04 115.476 324.2 118.656 324.2C121.836 324.2 124.156 322.04 124.156 318.86C124.156 315.72 121.816 313.54 118.656 313.54ZM118.676 322.72C116.376 322.72 114.876 321.2 114.876 318.88C114.876 317.7 115.216 316.76 115.916 316.06C116.616 315.36 117.536 315 118.676 315C120.936 315 122.436 316.54 122.436 318.86C122.436 321.18 120.936 322.72 118.676 322.72ZM135.524 309H133.884V315.3C133.084 314.2 131.664 313.54 129.964 313.54C126.924 313.54 124.744 315.66 124.744 318.9C124.744 321.98 126.704 324.2 129.844 324.2C131.704 324.2 133.264 323.4 133.904 322.18L134.024 324H135.524V309ZM133.884 319.02C133.884 321.36 132.324 322.74 130.084 322.74C127.904 322.74 126.464 321.3 126.464 318.9C126.464 316.52 127.824 315 130.144 315C132.384 315 133.884 316.48 133.884 318.74V319.02ZM137.464 313.74V320.1C137.464 322.6 139.024 324.2 141.804 324.2C144.504 324.2 146.144 322.72 146.144 320.1V313.74H144.484V320.18C144.484 321.76 143.544 322.74 141.804 322.74C140.124 322.74 139.124 321.84 139.124 320.18V313.74H137.464ZM152.537 313.54C149.477 313.54 147.257 315.68 147.257 318.86C147.257 322.04 149.477 324.2 152.557 324.2C155.057 324.2 157.057 322.82 157.557 320.66H155.837C155.417 321.92 154.217 322.72 152.557 322.72C150.377 322.72 148.977 321.2 148.977 318.88C148.977 316.54 150.357 315.02 152.537 315.02C154.137 315.02 155.417 315.8 155.837 317.1H157.557C157.317 316.04 156.737 315.18 155.817 314.52C154.917 313.86 153.817 313.54 152.537 313.54ZM160.745 315.16V324H162.405V315.16H165.545V313.74H162.405V310.84L160.745 310.92V313.74H157.585V315.16H160.745ZM174.176 313.54C171.116 313.54 168.896 315.68 168.896 318.86C168.896 322.04 171.116 324.2 174.196 324.2C176.696 324.2 178.696 322.82 179.196 320.66H177.476C177.056 321.92 175.856 322.72 174.196 322.72C172.016 322.72 170.616 321.2 170.616 318.88C170.616 316.54 171.996 315.02 174.176 315.02C175.776 315.02 177.056 315.8 177.476 317.1H179.196C178.956 316.04 178.376 315.18 177.456 314.52C176.556 313.86 175.456 313.54 174.176 313.54ZM185.723 313.68C185.543 313.62 185.303 313.6 185.043 313.6C183.683 313.6 182.643 314.26 182.163 315.48L181.963 313.74H180.503V324H182.163V318.54C182.163 316.52 183.223 315.18 185.083 315.18C185.343 315.18 185.563 315.2 185.723 315.22V313.68ZM185.886 321.32C185.886 322.18 186.206 322.88 186.826 323.42C187.446 323.94 188.246 324.2 189.226 324.2C190.126 324.2 190.966 324 191.746 323.58C192.526 323.16 193.046 322.6 193.346 321.94L193.446 324H194.926V317.74C194.926 314.94 193.246 313.54 190.666 313.54C189.346 313.54 188.266 313.86 187.446 314.52C186.626 315.18 186.226 316.06 186.206 317.18H187.786C187.686 315.76 188.826 314.92 190.586 314.92C192.246 314.92 193.286 315.78 193.286 317.46V317.82L189.666 318.24C187.266 318.5 185.886 319.5 185.886 321.32ZM193.286 319.44C193.246 320.92 191.906 322.82 189.686 322.82C188.386 322.82 187.586 322.22 187.586 321.2C187.586 320.24 188.246 319.64 189.986 319.4L193.286 319V319.44ZM210.702 313.74H207.542V310.84L205.902 310.92V313.74H199.962V312.5C199.962 310.88 200.742 310.24 202.182 310.24C202.642 310.24 203.102 310.32 203.602 310.46V309.18C203.102 309 202.382 308.88 201.762 308.88C199.502 308.88 198.302 310.18 198.302 312.34V313.74H195.722V315.16H198.302V324H199.962V315.16H205.902V324H207.542V315.16H210.702V313.74ZM220.801 321.02H219.121C218.661 322.12 217.501 322.8 215.961 322.8C213.741 322.8 212.341 321.48 212.341 319.18V318.88H220.601C220.641 318.56 220.661 318.3 220.661 318.08C220.661 315.38 218.681 313.54 215.841 313.54C212.781 313.54 210.621 315.72 210.621 318.86C210.621 322.04 212.741 324.2 215.961 324.2C218.341 324.2 220.221 323.02 220.801 321.02ZM212.401 317.66C212.701 316.04 214.041 314.96 215.801 314.96C217.641 314.96 218.961 316.12 218.961 317.66H212.401ZM227.33 313.68C227.15 313.62 226.91 313.6 226.65 313.6C225.29 313.6 224.25 314.26 223.77 315.48L223.57 313.74H222.11V324H223.77V318.54C223.77 316.52 224.83 315.18 226.69 315.18C226.95 315.18 227.17 315.2 227.33 315.22V313.68ZM227.336 320.98C227.476 322.96 229.116 324.2 231.616 324.2C234.096 324.2 235.716 322.96 235.716 321.06C235.716 319.62 234.816 318.54 233.036 318.24L230.836 317.86C229.876 317.68 229.176 317.38 229.176 316.48C229.176 315.5 230.096 314.84 231.456 314.84C232.896 314.84 233.856 315.5 233.916 316.62H235.476C235.396 314.7 233.816 313.54 231.436 313.54C229.096 313.54 227.516 314.74 227.516 316.58C227.516 318.06 228.516 318.96 230.496 319.3L232.516 319.64C233.476 319.8 234.056 320.32 234.056 321.18C234.056 322.22 233.176 322.88 231.636 322.88C230.096 322.88 229.036 322.18 228.956 320.98H227.336ZM236.3 322.9C236.3 323.6 236.84 324.14 237.56 324.14C238.26 324.14 238.82 323.6 238.82 322.9C238.82 322.2 238.26 321.68 237.56 321.68C236.84 321.68 236.3 322.2 236.3 322.9Z" fill="white"/>
</svg>
